<svg id="Capa_1" enable-background="new 0 0 512 512" height="512" viewBox="0 0 512 512" width="512" xmlns="http://www.w3.org/2000/svg"><g>
    <path d="m148.881 291.347h51.413v60.305h-51.413z" />
    <path d="m230.294 291.347h51.412v60.305h-51.412z" />
    <path d="m148.881 381.652h51.413v60.305h-51.413z" />
    <path d="m230.294 381.652h51.412v60.305h-51.412z" />
    <path d="m67.469 381.652h51.412v60.305h-51.412z" />
    <path d="m67.469 291.347h51.412v60.305h-51.412z" />
    <path d="m0 509.426h512v-285.548h-512zm37.469-248.079h437.063v210.61h-437.063z" fill="#FFA061"/>
    <path d="m393.119 291.347h51.412v60.305h-51.412z" />
    <path d="m393.119 381.652h51.412v60.305h-51.412z" />
    <path d="m311.706 381.652h51.413v60.305h-51.413z" />
    <path d="m311.706 291.347h51.413v60.305h-51.413z" />
    <path d="m426.715 90.432v-35.442c0-28.902-23.514-52.416-52.416-52.416-28.901 0-52.415 23.514-52.415 52.416v35.443h-131.768v-35.443c0-28.902-23.514-52.416-52.415-52.416-28.902 0-52.416 23.514-52.416 52.416v35.443h-85.285v103.446h512v-103.447zm-266.599 0h-44.831v-35.442c0-12.36 10.056-22.416 22.416-22.416 12.359 0 22.415 10.056 22.415 22.416zm236.599 0h-44.831v-35.442c0-12.36 10.056-22.416 22.415-22.416 12.36 0 22.416 10.056 22.416 22.416z" fill="#FFA061"/>
</g></svg>